<svg width="49" height="49" viewBox="0 0 49 49" fill="none" xmlns="http://www.w3.org/2000/svg">
<path d="M38.8278 4.77734H12.8278C10.4158 4.77734 6.82776 6.37534 6.82776 10.7773V38.7773C6.82776 43.1793 10.4158 44.7773 12.8278 44.7773H42.8278V40.7773H12.8518C11.9278 40.7533 10.8278 40.3893 10.8278 38.7773C10.8278 38.5753 10.8458 38.3953 10.8758 38.2313C11.0998 37.0793 12.0438 36.7973 12.8518 36.7773H42.8278V8.77734C42.8278 7.71648 42.4063 6.69906 41.6562 5.94892C40.906 5.19877 39.8886 4.77734 38.8278 4.77734ZM38.8278 22.7773L34.8278 20.7773L30.8278 22.7773V8.77734H38.8278V22.7773Z" fill="#F7F1E6"/>
</svg>
