<svg width="49" height="49" viewBox="0 0 49 49" fill="none" xmlns="http://www.w3.org/2000/svg">
<path d="M44.3137 25.4392L26.3137 5.43915C25.5557 4.59515 24.0997 4.59515 23.3417 5.43915L5.34173 25.4392C5.08264 25.7263 4.91258 26.0826 4.85221 26.4647C4.79185 26.8467 4.8438 27.2381 5.00173 27.5912C5.32173 28.3132 6.03773 28.7772 6.82773 28.7772H10.8277V42.7772C10.8277 43.3076 11.0384 43.8163 11.4135 44.1914C11.7886 44.5664 12.2973 44.7772 12.8277 44.7772H18.8277C19.3582 44.7772 19.8669 44.5664 20.2419 44.1914C20.617 43.8163 20.8277 43.3076 20.8277 42.7772V34.7772H28.8277V42.7772C28.8277 43.3076 29.0384 43.8163 29.4135 44.1914C29.7886 44.5664 30.2973 44.7772 30.8277 44.7772H36.8277C37.3582 44.7772 37.8669 44.5664 38.2419 44.1914C38.617 43.8163 38.8277 43.3076 38.8277 42.7772V28.7772H42.8277C43.2151 28.7788 43.5945 28.6677 43.9198 28.4574C44.2451 28.2472 44.5022 27.9468 44.6597 27.5929C44.8172 27.2391 44.8684 26.847 44.807 26.4646C44.7455 26.0822 44.5742 25.7259 44.3137 25.4392Z" fill="#F7F1E6"/>
</svg>
