<svg width="267" height="61" viewBox="0 0 267 61" fill="none" xmlns="http://www.w3.org/2000/svg">
<path d="M216.836 1.41444C217.618 -1.45691 215.404 2.54454 225.421 11.6321C226.15 11.728 227.031 5.46435 236.839 4.53367C254.041 2.9015 267.8 52.8279 265.774 49.8034C256.813 36.4309 220.874 37.3175 218.525 28.11C216.645 20.744 219.865 14.7025 224.217 12.8499C224.217 12.8499 216.397 5.30764 215.658 4.24832C214.919 3.18898 216.053 4.28579 216.836 1.41444Z" fill="url(#paint0_linear_110_241)"/>
<path d="M229.779 15.6858C230.782 15.6858 231.764 15.3798 232.686 15.3798C233.651 15.3798 234.941 16.4486 235.899 16.7568C237.422 17.2463 238.309 18.7697 239.742 19.528C240.592 19.9784 241.457 20.9251 242.02 21.7381C244.154 24.8209 246.74 27.1384 249.364 29.7625C250.966 31.3649 252.514 33.575 254.872 34.0467" stroke="url(#paint1_linear_110_241)" stroke-opacity="0.7" stroke-width="2" stroke-linecap="round"/>
<path d="M2.57849 54.3213C6.51503 53.1359 10.0541 51.3806 14.1558 50.6156C20.4521 49.4411 26.777 48.7065 33.1273 47.8955C44.8518 46.3983 56.6529 46.2834 68.4613 46.2606C81.5455 46.2353 94.4073 48.3439 107.343 50.029C113.067 50.7746 118.79 51.3101 124.473 52.3355C131.076 53.5269 137.693 54.6126 144.374 55.2402C154.041 56.1482 163.558 57.5034 173.293 57.7052C186.032 57.9692 198.9 57.5328 211.612 56.8211C219.675 56.3697 227.842 55.6476 235.706 53.7025C238.713 52.9588 241.691 52.1376 244.712 51.4498C245.708 51.2231 246.802 50.5986 247.816 50.5842" stroke="url(#paint2_linear_110_241)" stroke-opacity="0.7" stroke-width="4" stroke-linecap="round"/>
<path d="M16.055 42.676L21.599 39.544C21.959 39.364 22.211 39.184 22.499 39.184C23.111 39.184 23.975 39.94 25.055 41.272C25.343 40.372 25.487 39.4 25.487 38.428C25.487 36.808 24.767 30.328 18.359 30.328C12.743 30.328 11.087 35.26 11.087 38.5C11.087 42.748 13.931 45.412 17.135 45.988C15.695 44.296 15.551 44.008 15.551 43.612C15.551 43.252 15.695 42.892 16.055 42.676ZM30.491 52L26.063 55.168C25.775 55.384 25.487 55.492 25.199 55.492C24.911 55.492 24.623 55.348 24.335 54.988C24.011 54.52 23.435 53.8 22.751 52.936C20.915 53.584 19.043 53.872 17.207 53.872C9.03495 53.872 1.83495 47.824 1.83495 38.824C1.83495 36.88 2.19495 34.756 2.95095 32.524C5.29095 25.792 12.131 22.768 18.467 22.768C29.591 22.768 34.271 31.732 34.271 38.284C34.271 41.992 32.939 45.664 29.951 48.508C30.995 50.488 31.103 50.704 31.103 51.028C31.103 51.352 30.959 51.676 30.491 52ZM59.2057 53.26L52.1497 52.864C50.4217 53.404 48.7297 53.692 47.1457 53.692C42.1417 53.692 38.2537 50.884 37.9297 44.188C37.8217 41.848 37.7497 37.384 37.7137 35.08C37.7137 33.604 38.2177 33.316 38.6497 33.28C38.6857 33.208 44.2657 32.812 44.8777 32.812C45.5977 32.812 45.8857 33.172 45.9217 33.604C46.1377 36.016 46.2097 37.96 46.4257 42.244C46.5697 45.34 47.6497 46.42 49.1617 46.42C49.8817 46.42 50.7457 46.168 51.6457 45.736L52.2937 33.352C52.3297 32.92 52.6897 32.632 53.0857 32.632L60.2497 33.028C60.6817 33.028 60.9697 33.388 60.9697 33.82L59.9977 52.54C59.9617 52.972 59.6017 53.26 59.2057 53.26ZM74.9183 53.152L67.7183 53.512H67.6463C67.2503 53.512 66.9623 53.188 66.9263 52.792L66.0263 35.26C66.0263 34.828 66.3143 34.504 66.7463 34.468L73.9463 34.108H74.0183C74.3783 34.108 74.7023 34.432 74.7023 34.792L75.6023 52.36V52.432C75.6023 52.792 75.2783 53.116 74.9183 53.152ZM75.2783 28.204C75.2783 31.12 72.9023 33.496 69.9863 33.496C67.0343 33.496 64.6583 31.12 64.6583 28.204C64.6583 25.252 67.0343 22.876 69.9863 22.876C72.9023 22.876 75.2783 25.252 75.2783 28.204ZM91.5377 54.016H91.1057C82.9337 54.016 78.8297 48.436 78.8297 42.964C78.8297 37.816 82.4657 32.416 90.6737 32.416C99.6017 32.416 99.9977 40.372 99.9977 41.56C99.9977 43.216 99.3137 44.584 97.1897 45.304C95.4977 45.88 92.8337 46.276 90.9617 46.348C90.3857 46.348 90.2057 46.096 90.0617 45.664C89.6297 44.476 88.9457 42.136 88.9457 41.992C88.9457 41.596 89.2337 41.416 89.7017 41.308C91.5737 40.876 91.8257 40.804 91.8257 40.3C91.8257 39.976 91.1417 38.824 89.6297 38.824C87.9017 38.824 86.4617 40.336 86.4617 42.568C86.4617 45.124 88.3337 48.004 92.8337 48.004C93.0857 48.004 93.3737 48.004 93.6257 47.968H93.6977C94.2017 47.968 94.8137 48.292 94.8137 48.904C94.8137 49.264 93.8777 51.712 93.3377 52.936C93.0497 53.512 92.5817 54.016 91.5377 54.016ZM116.674 48.148L114.802 52.684C114.514 53.368 114.19 53.728 113.65 53.728C113.542 53.728 113.434 53.728 113.326 53.692C107.53 52.54 105.514 49.372 105.334 40.264L102.634 40.12C102.238 40.084 101.914 39.724 101.914 39.328L102.346 33.352C102.382 32.956 102.706 32.632 103.138 32.632L105.442 32.776C105.514 31.408 105.586 29.932 105.694 28.384C105.73 27.952 105.802 27.268 106.738 27.268H106.882L113.686 27.592C114.298 27.628 114.586 27.988 114.586 28.6C114.514 30.112 114.406 31.696 114.298 33.208L116.782 33.352C117.178 33.352 117.502 33.712 117.502 34.144L117.07 40.12C117.034 40.48 116.746 40.804 116.35 40.804H116.278L113.902 40.696C113.902 43.972 114.334 46.456 115.918 47.14C116.314 47.32 116.746 47.464 116.746 47.86C116.746 47.932 116.71 48.04 116.674 48.148ZM134.356 42.676L139.9 39.544C140.26 39.364 140.512 39.184 140.8 39.184C141.412 39.184 142.276 39.94 143.356 41.272C143.644 40.372 143.788 39.4 143.788 38.428C143.788 36.808 143.068 30.328 136.66 30.328C131.044 30.328 129.388 35.26 129.388 38.5C129.388 42.748 132.232 45.412 135.436 45.988C133.996 44.296 133.852 44.008 133.852 43.612C133.852 43.252 133.996 42.892 134.356 42.676ZM148.792 52L144.364 55.168C144.076 55.384 143.788 55.492 143.5 55.492C143.212 55.492 142.924 55.348 142.636 54.988C142.312 54.52 141.736 53.8 141.052 52.936C139.216 53.584 137.344 53.872 135.508 53.872C127.336 53.872 120.136 47.824 120.136 38.824C120.136 36.88 120.496 34.756 121.252 32.524C123.592 25.792 130.432 22.768 136.768 22.768C147.892 22.768 152.572 31.732 152.572 38.284C152.572 41.992 151.24 45.664 148.252 48.508C149.296 50.488 149.404 50.704 149.404 51.028C149.404 51.352 149.26 51.676 148.792 52ZM177.507 53.26L170.451 52.864C168.723 53.404 167.031 53.692 165.447 53.692C160.443 53.692 156.555 50.884 156.231 44.188C156.123 41.848 156.051 37.384 156.015 35.08C156.015 33.604 156.519 33.316 156.951 33.28C156.987 33.208 162.567 32.812 163.179 32.812C163.899 32.812 164.187 33.172 164.223 33.604C164.439 36.016 164.511 37.96 164.727 42.244C164.871 45.34 165.951 46.42 167.463 46.42C168.183 46.42 169.047 46.168 169.947 45.736L170.595 33.352C170.631 32.92 170.991 32.632 171.387 32.632L178.551 33.028C178.983 33.028 179.271 33.388 179.271 33.82L178.299 52.54C178.263 52.972 177.903 53.26 177.507 53.26ZM195.811 54.016H195.379C187.207 54.016 183.103 48.436 183.103 42.964C183.103 37.816 186.739 32.416 194.947 32.416C203.875 32.416 204.271 40.372 204.271 41.56C204.271 43.216 203.587 44.584 201.463 45.304C199.771 45.88 197.107 46.276 195.235 46.348C194.659 46.348 194.479 46.096 194.335 45.664C193.903 44.476 193.219 42.136 193.219 41.992C193.219 41.596 193.507 41.416 193.975 41.308C195.847 40.876 196.099 40.804 196.099 40.3C196.099 39.976 195.415 38.824 193.903 38.824C192.175 38.824 190.735 40.336 190.735 42.568C190.735 45.124 192.607 48.004 197.107 48.004C197.359 48.004 197.647 48.004 197.899 47.968H197.971C198.475 47.968 199.087 48.292 199.087 48.904C199.087 49.264 198.151 51.712 197.611 52.936C197.323 53.512 196.855 54.016 195.811 54.016ZM210.219 53.944H209.823C209.031 53.944 208.671 53.8 208.455 53.188L206.871 49.012C206.835 48.904 206.799 48.796 206.799 48.724C206.799 48.184 207.519 48.112 207.951 48.112C210.075 48.076 211.083 47.068 211.083 46.204C211.083 45.736 210.615 45.16 210.111 44.512L209.139 43.432C207.555 41.632 206.907 40.084 206.907 38.716C206.907 34.648 212.775 32.488 217.491 32.488C218.895 32.488 219.255 32.632 219.507 33.28L221.127 37.456C221.199 37.6 221.199 37.708 221.199 37.816C221.199 38.212 220.803 38.356 220.335 38.356H220.191C218.031 38.356 217.203 39.076 217.203 39.796C217.203 40.408 217.743 41.092 219.111 42.604C220.767 44.404 221.487 46.024 221.487 47.392C221.487 51.64 215.043 53.944 210.219 53.944ZM238.561 48.148L236.689 52.684C236.401 53.368 236.077 53.728 235.537 53.728C235.429 53.728 235.321 53.728 235.213 53.692C229.417 52.54 227.401 49.372 227.221 40.264L224.521 40.12C224.125 40.084 223.801 39.724 223.801 39.328L224.233 33.352C224.269 32.956 224.593 32.632 225.025 32.632L227.329 32.776C227.401 31.408 227.473 29.932 227.581 28.384C227.617 27.952 227.689 27.268 228.625 27.268H228.769L235.573 27.592C236.185 27.628 236.473 27.988 236.473 28.6C236.401 30.112 236.293 31.696 236.185 33.208L238.669 33.352C239.065 33.352 239.389 33.712 239.389 34.144L238.957 40.12C238.921 40.48 238.633 40.804 238.237 40.804H238.165L235.789 40.696C235.789 43.972 236.221 46.456 237.805 47.14C238.201 47.32 238.633 47.464 238.633 47.86C238.633 47.932 238.597 48.04 238.561 48.148Z" fill="url(#paint3_linear_110_241)"/>
<defs>
<linearGradient id="paint0_linear_110_241" x1="269.813" y1="44.1905" x2="210.078" y2="3.81933" gradientUnits="userSpaceOnUse">
<stop stop-color="#6E9431"/>
<stop offset="0.365385" stop-color="#A0D97C"/>
<stop offset="0.668269" stop-color="#9FD774"/>
<stop offset="1" stop-color="#6E9431"/>
</linearGradient>
<linearGradient id="paint1_linear_110_241" x1="242.326" y1="15.3798" x2="242.326" y2="34.0467" gradientUnits="userSpaceOnUse">
<stop stop-color="#8DB756"/>
<stop offset="1" stop-color="#5E7E32"/>
</linearGradient>
<linearGradient id="paint2_linear_110_241" x1="125.097" y1="45.3846" x2="125.285" y2="58.6154" gradientUnits="userSpaceOnUse">
<stop stop-color="#8DB756"/>
<stop offset="1" stop-color="#5E7E32"/>
</linearGradient>
<linearGradient id="paint3_linear_110_241" x1="121.075" y1="2" x2="121.075" y2="74" gradientUnits="userSpaceOnUse">
<stop stop-color="white"/>
<stop offset="0.495192" stop-color="#F9FCF6"/>
<stop offset="1" stop-color="#2C5D06"/>
</linearGradient>
</defs>
</svg>
