<svg width="49" height="49" viewBox="0 0 49 49" fill="none" xmlns="http://www.w3.org/2000/svg">
<path d="M44.8258 16.7773C44.826 16.4144 44.7271 16.0582 44.5398 15.7473L39.1218 6.71734C38.7649 6.12703 38.2621 5.63849 37.6617 5.29873C37.0613 4.95897 36.3836 4.77941 35.6938 4.77734H13.9578C12.5618 4.77734 11.2478 5.52134 10.5298 6.71934L5.11181 15.7473C4.9245 16.0582 4.82562 16.4144 4.82581 16.7773C4.82581 18.7873 5.59781 20.6053 6.82581 22.0133V40.7773C6.82581 41.3078 7.03652 41.8165 7.41159 42.1916C7.78667 42.5666 8.29537 42.7773 8.82581 42.7773H24.8258C25.3562 42.7773 25.8649 42.5666 26.24 42.1916C26.6151 41.8165 26.8258 41.3078 26.8258 40.7773V30.7773H34.8258V40.7773C34.8258 41.3078 35.0365 41.8165 35.4116 42.1916C35.7867 42.5666 36.2954 42.7773 36.8258 42.7773H40.8258C41.3562 42.7773 41.8649 42.5666 42.24 42.1916C42.6151 41.8165 42.8258 41.3078 42.8258 40.7773V22.0133C44.0538 20.6053 44.8258 18.7873 44.8258 16.7773ZM40.7938 17.2793C40.6708 18.2452 40.2 19.1331 39.4697 19.7769C38.7393 20.4207 37.7994 20.7764 36.8258 20.7773C34.6198 20.7773 32.8258 18.9833 32.8258 16.7773C32.8258 16.6413 32.7758 16.5213 32.7478 16.3933L32.7878 16.3853L31.2658 8.77734H35.6938L40.7938 17.2793ZM20.8398 16.9073L22.4638 8.77734H27.1858L28.8118 16.9073C28.7418 19.0533 26.9858 20.7773 24.8258 20.7773C22.6658 20.7773 20.9098 19.0533 20.8398 16.9073ZM13.9578 8.77734H18.3858L16.8658 16.3853L16.9058 16.3933C16.8758 16.5213 16.8258 16.6413 16.8258 16.7773C16.8258 18.9833 15.0318 20.7773 12.8258 20.7773C11.8522 20.7764 10.9123 20.4207 10.1819 19.7769C9.45158 19.1331 8.98084 18.2452 8.85781 17.2793L13.9578 8.77734ZM20.8258 32.7773H12.8258V26.7773H20.8258V32.7773Z" fill="#F7F1E6"/>
</svg>
