<svg width="41" height="41" viewBox="0 0 41 41" fill="none" xmlns="http://www.w3.org/2000/svg">
<path d="M20.8278 0.777344C9.98576 0.777344 0.827759 9.93534 0.827759 20.7773C0.827759 31.6193 9.98576 40.7773 20.8278 40.7773C31.6698 40.7773 40.8278 31.6193 40.8278 20.7773C40.8278 9.93534 31.6698 0.777344 20.8278 0.777344ZM20.8278 10.7773C24.2818 10.7773 26.8278 13.3213 26.8278 16.7773C26.8278 20.2333 24.2818 22.7773 20.8278 22.7773C17.3758 22.7773 14.8278 20.2333 14.8278 16.7773C14.8278 13.3213 17.3758 10.7773 20.8278 10.7773ZM10.6158 30.3213C12.4098 27.6813 15.4018 25.9213 18.8278 25.9213H22.8278C26.2558 25.9213 29.2458 27.6813 31.0398 30.3213C28.4838 33.0573 24.8578 34.7773 20.8278 34.7773C16.7978 34.7773 13.1718 33.0573 10.6158 30.3213Z" fill="#F7F1E6"/>
</svg>
