<svg width="198" height="96" viewBox="0 0 198 96" fill="none" xmlns="http://www.w3.org/2000/svg">
<path d="M142.214 12.7046C126.265 12.7046 113.195 25.0335 112.014 40.6812C110.517 40.36 108.963 40.1899 107.37 40.1899C95.1941 40.1899 85.3237 50.0603 85.3237 62.2358C85.3237 62.8532 85.3511 63.4644 85.4009 64.0688H195.241C196.35 61.276 196.96 58.2305 196.96 55.0425C196.96 41.5342 186.01 30.5836 172.501 30.5835C171.626 30.5835 170.762 30.6296 169.911 30.7192C165.201 20.107 154.573 12.7047 142.214 12.7046Z" fill="#ADADAD"/>
<path d="M48.9121 0.616821C35.2601 0.616821 24.0727 11.1697 23.0625 24.5631C21.781 24.2883 20.4515 24.1422 19.0879 24.1422C8.66671 24.1422 0.217957 32.5902 0.217773 43.0114C0.217773 43.5398 0.240593 44.0632 0.283203 44.5807H94.2988C95.2485 42.1904 95.7705 39.5837 95.7705 36.8551C95.7705 25.2929 86.3971 15.9196 74.835 15.9196C74.0862 15.9196 73.3466 15.9601 72.6182 16.0367C68.5874 6.95308 59.4901 0.616949 48.9121 0.616821Z" fill="#7E7E7E"/>
<path d="M86.5481 22.5988C109.221 22.5988 127.799 40.1243 129.477 62.3673C131.606 61.9108 133.814 61.6691 136.079 61.6691C153.387 61.6691 167.417 75.6997 167.417 93.007C167.417 93.8844 167.379 94.7532 167.308 95.6124H11.1711C9.59405 91.6426 8.72583 87.314 8.72583 82.7823C8.72587 63.5802 24.2923 48.0139 43.4944 48.0138C44.7386 48.0138 45.9675 48.0807 47.178 48.2081C53.8723 33.1221 68.9802 22.5988 86.5481 22.5988Z" fill="#D9D9D9"/>
<path d="M11.4736 79.659C13.8703 72.008 18.8273 67.668 24.9049 62.3561C27.0657 60.4675 29.6646 57.8493 32.3136 56.5248C34.0391 55.662 35.9853 55.3939 37.7386 54.5172C40.7905 52.9913 45.8722 52.1974 49.2341 52.1273C55.9998 51.9864 62.7808 52.1273 69.5482 52.1273C75.6922 52.1273 82.3303 52.9432 88.1417 55.1386C93.8825 57.3074 100.119 58.8497 105.54 61.7825C110.494 64.4627 116.672 65.4159 122.007 67.0164C127.181 68.5687 132.2 70.0619 137.517 71.2704C146.737 73.3658 156.08 73.2063 165.574 73.2063C171.363 73.2063 177.282 70.437 181.181 66.5384C182.303 65.4159 184.644 63.2303 184.837 61.5913C185.106 59.3031 186.862 56.9074 186.988 54.7084C187.173 51.466 186.245 49.8611 184.622 47.1563C183.76 45.72 183.506 44.0374 181.921 43.4281C180.454 42.8636 179.148 41.7416 177.548 41.1816C176.195 40.7081 163.739 36.6796 162.468 39.2219" stroke="#979797" stroke-opacity="0.4" stroke-width="20" stroke-linecap="round"/>
</svg>
