<svg width="166" height="124" viewBox="0 0 166 124" fill="none" xmlns="http://www.w3.org/2000/svg">
<path d="M102.16 37.7333C110.156 37.7333 116.708 43.9147 117.299 51.7596C118.05 51.5985 118.829 51.5126 119.628 51.5126C125.732 51.5126 130.68 56.4606 130.68 62.5643C130.68 62.8735 130.664 63.1795 130.639 63.4823H75.5811C75.0246 62.082 74.7148 60.5564 74.7148 58.9579C74.7149 52.186 80.2046 46.6962 86.9766 46.6962C87.4149 46.6962 87.8479 46.7197 88.2744 46.7645C90.6352 41.4441 95.9645 37.7333 102.16 37.7333Z" fill="url(#paint0_linear_119_322)"/>
<path d="M95.8972 12.7032C96.2221 12.6079 96.5477 12.5165 96.8729 12.4282C85.9147 23.0996 81.0741 39.3259 85.6793 55.025C92.3106 77.6307 116.012 90.5804 138.618 83.9494C146.475 81.6445 153.165 77.276 158.272 71.6094C154.336 88.4831 141.675 102.81 123.862 108.035C97.5376 115.757 69.9371 100.677 62.2147 74.3519C54.4923 48.027 69.5724 20.4257 95.8972 12.7032Z" fill="url(#paint1_linear_119_322)"/>
<path d="M56.4104 71.2589C72.6701 71.2592 85.994 83.8277 87.1975 99.7794C88.7239 99.4521 90.3077 99.2784 91.9319 99.2784C104.344 99.2784 114.406 109.341 114.406 121.753C114.406 122.382 114.379 123.005 114.328 123.621H2.35278C1.22177 120.774 0.598877 117.67 0.598877 114.42C0.599035 100.649 11.7625 89.4856 25.5334 89.4855C26.4256 89.4855 27.3071 89.5328 28.175 89.6241C32.9761 78.8054 43.8116 71.2589 56.4104 71.2589Z" fill="url(#paint2_linear_119_322)"/>
<defs>
<linearGradient id="paint0_linear_119_322" x1="102.697" y1="37.7333" x2="102.697" y2="63.4823" gradientUnits="userSpaceOnUse">
<stop stop-color="#E3F5F6"/>
<stop offset="0.745192" stop-color="#E8E8E8"/>
<stop offset="1" stop-color="#AAAAAA"/>
</linearGradient>
<linearGradient id="paint1_linear_119_322" x1="92.8255" y1="13.6043" x2="120.791" y2="108.936" gradientUnits="userSpaceOnUse">
<stop stop-color="white"/>
<stop offset="1" stop-color="#B8FDFF"/>
</linearGradient>
<linearGradient id="paint2_linear_119_322" x1="57.5027" y1="71.2589" x2="57.5027" y2="123.621" gradientUnits="userSpaceOnUse">
<stop stop-color="#F0F0F0"/>
<stop offset="0.745192" stop-color="#E8E8E8"/>
<stop offset="1" stop-color="#AAAAAA"/>
</linearGradient>
</defs>
</svg>
