<svg width="160" height="132" viewBox="0 0 160 132" fill="none" xmlns="http://www.w3.org/2000/svg">
<path d="M31.0715 79.4546C31.0715 79.4546 39.8562 92.8023 40.0959 98.6812C40.0989 98.7525 40.0963 98.8224 40.094 98.8911C40.1025 99.0515 40.1077 99.213 40.1077 99.3755C40.1077 104.347 36.0772 108.377 31.1057 108.377C26.1344 108.377 22.1047 104.347 22.1047 99.3755C22.1047 98.9957 22.1304 98.6218 22.176 98.2544C22.192 98.0248 22.2395 97.7539 22.3137 97.4468C22.4235 96.944 22.5749 96.4572 22.7649 95.9897C24.7575 90.4487 31.0715 79.4546 31.0715 79.4546Z" fill="#75BEF9"/>
<path d="M129.229 79.4546C129.229 79.4546 138.014 92.8023 138.253 98.6812C138.256 98.7528 138.254 98.8231 138.251 98.8921C138.26 99.0522 138.265 99.2133 138.265 99.3755C138.265 104.347 134.235 108.377 129.263 108.377C124.292 108.377 120.262 104.347 120.262 99.3755C120.262 98.9957 120.288 98.6218 120.333 98.2544C120.349 98.0248 120.397 97.7539 120.471 97.4468C120.581 96.9458 120.731 96.4606 120.92 95.9946C122.911 90.4552 129.229 79.4546 129.229 79.4546Z" fill="#75BEF9"/>
<path d="M78.6616 0.133667C101.334 0.133677 119.912 17.6592 121.59 39.9022C123.719 39.4457 125.928 39.204 128.193 39.204C145.5 39.204 159.531 53.2346 159.531 70.5419C159.531 71.4193 159.492 72.2881 159.421 73.1473H3.28467C1.70757 69.1775 0.839355 64.8489 0.839355 60.3173C0.839396 41.1151 16.4058 25.5488 35.6079 25.5487C36.8521 25.5487 38.0811 25.6156 39.2915 25.743C45.9858 10.657 61.0937 0.133667 78.6616 0.133667Z" fill="#B1B5C2"/>
<path d="M80.1511 79.4546C80.1614 79.4702 88.9349 92.8058 89.1746 98.6812C89.1776 98.7562 89.1763 98.8297 89.1736 98.9019C89.1817 99.0587 89.1863 99.2166 89.1863 99.3755C89.1863 104.347 85.1566 108.377 80.1853 108.377C75.2138 108.377 71.1833 104.347 71.1833 99.3755C71.1834 98.9957 71.209 98.6218 71.2546 98.2544C71.27 98.0331 71.3149 97.7735 71.3845 97.48C71.4948 96.9654 71.6494 96.4675 71.8435 95.9897C73.8361 90.4487 80.1511 79.4546 80.1511 79.4546Z" fill="#75BEF9"/>
<path d="M55.6108 102.851C55.6108 102.851 64.3955 116.199 64.6353 122.078C64.6382 122.149 64.6356 122.22 64.6333 122.289C64.6418 122.449 64.647 122.61 64.647 122.772C64.647 127.743 60.6165 131.774 55.645 131.774C50.6737 131.774 46.644 127.743 46.644 122.772C46.6441 122.392 46.6697 122.018 46.7153 121.651C46.7313 121.421 46.7788 121.15 46.853 120.843C46.9624 120.342 47.1132 119.857 47.3022 119.391C49.2929 113.852 55.6108 102.851 55.6108 102.851Z" fill="#75BEF9"/>
<path d="M104.69 102.851C104.69 102.851 113.474 116.199 113.714 122.078C113.717 122.149 113.714 122.219 113.712 122.288C113.721 122.448 113.726 122.609 113.726 122.772C113.726 127.743 109.695 131.774 104.724 131.774C99.7526 131.774 95.7229 127.743 95.7229 122.772C95.7229 122.392 95.7485 122.018 95.7942 121.651C95.8102 121.421 95.8577 121.15 95.9319 120.843C96.0417 120.341 96.1931 119.854 96.3831 119.386C98.3756 113.845 104.69 102.851 104.69 102.851Z" fill="#75BEF9"/>
</svg>
