<svg width="160" height="144" viewBox="0 0 160 144" fill="none" xmlns="http://www.w3.org/2000/svg">
<path d="M61.1252 143.098C61.3155 142.451 63.66 134.9 71.5154 109.873L62.7237 112.385V62.6038L104.512 67.3992L80.1928 99.0261L96.2916 97.656L61.1252 143.098Z" fill="#CEB944"/>
<path d="M78.5266 0.133423C101.199 0.133433 119.777 17.6589 121.455 39.902C123.584 39.4455 125.793 39.2037 128.058 39.2037C145.365 39.2037 159.396 53.2343 159.396 70.5416C159.396 71.4191 159.357 72.2879 159.286 73.1471H3.14966C1.57256 69.1773 0.704346 64.8486 0.704346 60.317C0.704386 41.1149 16.2708 25.5485 35.4729 25.5485C36.7171 25.5485 37.946 25.6153 39.1565 25.7428C45.8508 10.6568 60.9587 0.133423 78.5266 0.133423Z" fill="#B1B5C2"/>
</svg>
