<svg width="399" height="161" viewBox="0 0 399 161" fill="none" xmlns="http://www.w3.org/2000/svg">
<rect y="0.550415" width="398.148" height="160.417" rx="30" fill="#426F8A"/>
<path d="M165.363 160.968H30C13.4315 160.968 0.000131248 147.536 0 130.968V30.5509C0 13.9824 13.4315 0.549928 30 0.549927H142.899L165.363 160.968Z" fill="#D9D9D9"/>
<path d="M234.556 125.327L242.193 78.7813H249.465L241.829 125.327H234.556ZM213.715 113.781L214.92 106.509H251.284L250.079 113.781H213.715ZM218.193 125.327L225.829 78.7813H233.102L225.465 125.327H218.193ZM216.375 97.5995L217.602 90.3268H253.965L252.738 97.5995H216.375ZM276.119 125.327L283.755 78.7813H291.028L283.392 125.327H276.119ZM255.278 113.781L256.483 106.509H292.846L291.642 113.781H255.278ZM259.755 125.327L267.392 78.7813H274.664L267.028 125.327H259.755ZM257.937 97.5995L259.164 90.3268H295.528L294.301 97.5995H257.937ZM317.681 125.327L325.318 78.7813H332.59L324.954 125.327H317.681ZM296.84 113.781L298.045 106.509H334.409L333.204 113.781H296.84ZM301.318 125.327L308.954 78.7813H316.227L308.59 125.327H301.318ZM299.5 97.5995L300.727 90.3268H337.09L335.863 97.5995H299.5ZM352.448 100.804C350.388 100.804 348.509 100.304 346.812 99.304C345.13 98.2889 343.789 96.9404 342.789 95.2586C341.789 93.5616 341.289 91.6828 341.289 89.6222C341.289 87.5768 341.789 85.7131 342.789 84.0313C343.789 82.3343 345.13 80.9858 346.812 79.9858C348.509 78.9707 350.388 78.4631 352.448 78.4631C354.509 78.4631 356.38 78.9707 358.062 79.9858C359.759 80.9858 361.108 82.3343 362.108 84.0313C363.108 85.7131 363.608 87.5768 363.608 89.6222C363.608 91.6828 363.108 93.5616 362.108 95.2586C361.108 96.9404 359.759 98.2889 358.062 99.304C356.38 100.304 354.509 100.804 352.448 100.804ZM352.448 94.3495C353.327 94.3495 354.123 94.1374 354.835 93.7131C355.547 93.2889 356.108 92.7207 356.517 92.0086C356.941 91.2964 357.153 90.501 357.153 89.6222C357.153 88.7586 356.941 87.9707 356.517 87.2586C356.108 86.5464 355.547 85.9783 354.835 85.554C354.123 85.1298 353.327 84.9177 352.448 84.9177C351.585 84.9177 350.797 85.1298 350.085 85.554C349.373 85.9783 348.805 86.5464 348.38 87.2586C347.956 87.9707 347.744 88.7586 347.744 89.6222C347.744 90.501 347.956 91.2964 348.38 92.0086C348.805 92.7207 349.373 93.2889 350.085 93.7131C350.797 94.1374 351.585 94.3495 352.448 94.3495Z" fill="white"/>
<path d="M230.852 40.3268H228.034C227.867 39.5161 227.575 38.804 227.159 38.1904C226.75 37.5768 226.25 37.0616 225.659 36.6449C225.075 36.2207 224.428 35.9025 223.715 35.6904C223.003 35.4783 222.261 35.3722 221.488 35.3722C220.079 35.3722 218.803 35.7283 217.659 36.4404C216.522 37.1525 215.617 38.2018 214.943 39.5881C214.276 40.9745 213.943 42.6752 213.943 44.6904C213.943 46.7055 214.276 48.4063 214.943 49.7927C215.617 51.179 216.522 52.2283 217.659 52.9404C218.803 53.6525 220.079 54.0086 221.488 54.0086C222.261 54.0086 223.003 53.9025 223.715 53.6904C224.428 53.4783 225.075 53.1639 225.659 52.7472C226.25 52.323 226.75 51.804 227.159 51.1904C227.575 50.5692 227.867 49.8571 228.034 49.054H230.852C230.64 50.2434 230.253 51.3078 229.693 52.2472C229.132 53.1866 228.435 53.9858 227.602 54.6449C226.769 55.2964 225.833 55.7927 224.795 56.1336C223.765 56.4745 222.662 56.6449 221.488 56.6449C219.503 56.6449 217.738 56.1601 216.193 55.1904C214.647 54.2207 213.431 52.8419 212.545 51.054C211.659 49.2661 211.215 47.1449 211.215 44.6904C211.215 42.2358 211.659 40.1146 212.545 38.3268C213.431 36.5389 214.647 35.1601 216.193 34.1904C217.738 33.2207 219.503 32.7358 221.488 32.7358C222.662 32.7358 223.765 32.9063 224.795 33.2472C225.833 33.5881 226.769 34.0881 227.602 34.7472C228.435 35.3987 229.132 36.1942 229.693 37.1336C230.253 38.0654 230.64 39.1298 230.852 40.3268ZM235.042 56.3268V38.8722H237.724V56.3268H235.042ZM236.406 35.9631C235.883 35.9631 235.432 35.7851 235.054 35.429C234.682 35.073 234.497 34.6449 234.497 34.1449C234.497 33.6449 234.682 33.2169 235.054 32.8608C235.432 32.5048 235.883 32.3268 236.406 32.3268C236.929 32.3268 237.376 32.5048 237.747 32.8608C238.126 33.2169 238.315 33.6449 238.315 34.1449C238.315 34.6449 238.126 35.073 237.747 35.429C237.376 35.7851 236.929 35.9631 236.406 35.9631ZM250.227 38.8722V41.1449H241.181V38.8722H250.227ZM243.818 34.6904H246.5V51.3268C246.5 52.0843 246.609 52.6525 246.829 53.0313C247.056 53.4025 247.344 53.6525 247.693 53.7813C248.049 53.9025 248.424 53.9631 248.818 53.9631C249.113 53.9631 249.356 53.948 249.545 53.9177C249.734 53.8798 249.886 53.8495 250 53.8268L250.545 56.2358C250.363 56.304 250.109 56.3722 249.784 56.4404C249.458 56.5161 249.045 56.554 248.545 56.554C247.787 56.554 247.045 56.3911 246.318 56.0654C245.598 55.7396 245 55.2434 244.522 54.5768C244.053 53.9101 243.818 53.0692 243.818 52.054V34.6904ZM255.988 62.8722C255.534 62.8722 255.128 62.8343 254.772 62.7586C254.416 62.6904 254.17 62.6222 254.034 62.554L254.715 60.1904C255.367 60.3571 255.943 60.4177 256.443 60.3722C256.943 60.3268 257.386 60.1033 257.772 59.7018C258.166 59.3078 258.526 58.6677 258.852 57.7813L259.352 56.4177L252.897 38.8722H255.806L260.625 52.7813H260.806L265.625 38.8722H268.534L261.125 58.8722C260.791 59.7737 260.378 60.5199 259.886 61.1108C259.394 61.7093 258.822 62.1525 258.17 62.4404C257.526 62.7283 256.799 62.8722 255.988 62.8722ZM299.892 33.054V56.3268H297.164L284.483 38.054H284.255V56.3268H281.437V33.054H284.164L296.892 51.3722H297.119V33.054H299.892ZM310.304 56.7358C309.197 56.7358 308.194 56.5275 307.292 56.1108C306.391 55.6866 305.675 55.0768 305.144 54.2813C304.614 53.4783 304.349 52.5086 304.349 51.3722C304.349 50.3722 304.546 49.5616 304.94 48.9404C305.334 48.3116 305.86 47.8192 306.519 47.4631C307.179 47.1071 307.906 46.8419 308.701 46.6677C309.504 46.4858 310.311 46.3419 311.122 46.2358C312.182 46.0995 313.042 45.9972 313.701 45.929C314.368 45.8533 314.853 45.7283 315.156 45.554C315.466 45.3798 315.622 45.0768 315.622 44.6449V44.554C315.622 43.4328 315.315 42.5616 314.701 41.9404C314.095 41.3192 313.175 41.0086 311.94 41.0086C310.66 41.0086 309.656 41.2889 308.929 41.8495C308.201 42.4101 307.69 43.0086 307.394 43.6449L304.849 42.7358C305.304 41.6752 305.91 40.8495 306.667 40.2586C307.432 39.6601 308.266 39.2434 309.167 39.0086C310.076 38.7661 310.97 38.6449 311.849 38.6449C312.41 38.6449 313.054 38.7131 313.781 38.8495C314.516 38.9783 315.224 39.2472 315.906 39.6563C316.595 40.0654 317.167 40.6828 317.622 41.5086C318.076 42.3343 318.304 43.4404 318.304 44.8268V56.3268H315.622V53.9631H315.485C315.304 54.3419 315.001 54.7472 314.576 55.179C314.152 55.6108 313.588 55.9783 312.883 56.2813C312.179 56.5843 311.319 56.7358 310.304 56.7358ZM310.713 54.3268C311.773 54.3268 312.667 54.1184 313.394 53.7018C314.129 53.2851 314.682 52.7472 315.054 52.0881C315.432 51.429 315.622 50.7358 315.622 50.0086V47.554C315.508 47.6904 315.258 47.8154 314.872 47.929C314.493 48.0351 314.054 48.1298 313.554 48.2131C313.061 48.2889 312.58 48.3571 312.11 48.4177C311.648 48.4707 311.273 48.5161 310.985 48.554C310.288 48.6449 309.637 48.7927 309.031 48.9972C308.432 49.1942 307.947 49.4934 307.576 49.8949C307.213 50.2889 307.031 50.8268 307.031 51.5086C307.031 52.4404 307.376 53.1449 308.065 53.6222C308.762 54.0919 309.644 54.3268 310.713 54.3268ZM323.198 56.3268V38.8722H325.789V41.5995H326.017C326.38 40.6677 326.967 39.9442 327.778 39.429C328.589 38.9063 329.562 38.6449 330.698 38.6449C331.85 38.6449 332.808 38.9063 333.573 39.429C334.346 39.9442 334.948 40.6677 335.38 41.5995H335.562C336.009 40.698 336.68 39.9821 337.573 39.4518C338.467 38.9139 339.539 38.6449 340.789 38.6449C342.35 38.6449 343.626 39.1336 344.619 40.1108C345.611 41.0805 346.108 42.5919 346.108 44.6449V56.3268H343.426V44.6449C343.426 43.3571 343.073 42.4366 342.369 41.8836C341.664 41.3305 340.835 41.054 339.88 41.054C338.653 41.054 337.702 41.4252 337.028 42.1677C336.354 42.9025 336.017 43.8343 336.017 44.9631V56.3268H333.289V44.3722C333.289 43.3798 332.967 42.5805 332.323 41.9745C331.68 41.3608 330.85 41.054 329.835 41.054C329.138 41.054 328.486 41.2396 327.88 41.6108C327.282 41.9821 326.797 42.4972 326.426 43.1563C326.062 43.8078 325.88 44.5616 325.88 45.4177V56.3268H323.198ZM358.329 56.6904C356.647 56.6904 355.197 56.3192 353.977 55.5768C352.765 54.8268 351.829 53.7813 351.17 52.4404C350.519 51.0919 350.193 49.5237 350.193 47.7358C350.193 45.948 350.519 44.3722 351.17 43.0086C351.829 41.6374 352.746 40.5692 353.92 39.804C355.102 39.0313 356.481 38.6449 358.056 38.6449C358.965 38.6449 359.863 38.7964 360.75 39.0995C361.636 39.4025 362.443 39.8949 363.17 40.5768C363.897 41.251 364.477 42.1449 364.909 43.2586C365.34 44.3722 365.556 45.7434 365.556 47.3722V48.5086H352.102V46.1904H362.829C362.829 45.2055 362.632 44.3268 362.238 43.554C361.852 42.7813 361.299 42.1714 360.579 41.7245C359.867 41.2775 359.026 41.054 358.056 41.054C356.988 41.054 356.064 41.3192 355.284 41.8495C354.511 42.3722 353.916 43.054 353.5 43.8949C353.083 44.7358 352.875 45.6374 352.875 46.5995V48.1449C352.875 49.4631 353.102 50.5805 353.556 51.4972C354.019 52.4063 354.659 53.0995 355.477 53.5768C356.295 54.0464 357.246 54.2813 358.329 54.2813C359.034 54.2813 359.67 54.1828 360.238 53.9858C360.814 53.7813 361.31 53.4783 361.727 53.0768C362.144 52.6677 362.465 52.1601 362.693 51.554L365.284 52.2813C365.011 53.1601 364.553 53.9328 363.909 54.5995C363.265 55.2586 362.469 55.7737 361.522 56.1449C360.575 56.5086 359.511 56.6904 358.329 56.6904Z" fill="white"/>
</svg>
