<svg width="317" height="371" viewBox="0 0 317 371" fill="none" xmlns="http://www.w3.org/2000/svg">
<circle cx="177" cy="125" r="124" fill="#717171" stroke="white" stroke-width="2"/>
<path d="M250.167 272.053L250.051 271.878L250.015 271.671L246.015 248.671L245.98 248.474L246.025 248.277L250.025 230.777L250.072 230.57L250.2 230.4L260.7 216.4L260.75 216.333L260.811 216.275L271.237 206.345L281.437 191.896L212.812 214.45L212.551 214.536L212.282 214.476L66.04 181.868L78.417 217.095L89.8555 238.48L106.799 263.396L122.226 281.81L140.626 298.718L163.001 314.132L184.88 324.574L314.538 369.099L250.167 272.053Z" fill="#717171" stroke="white" stroke-width="2"/>
<path d="M47.5403 134C73.5076 134 94.5403 154.829 94.5403 180.5C94.5403 182.029 94.2754 183.155 93.8372 183.989C93.4062 184.809 92.7778 185.405 91.9397 185.837C90.1968 186.734 87.5602 186.919 84.0618 186.687C80.588 186.456 76.5313 185.842 71.9924 185.313C67.4881 184.789 62.5798 184.358 57.55 184.525C47.4722 184.86 36.8567 187.596 27.9221 196.781C19.2537 205.693 12.2833 220.558 8.79126 244.835C4.36736 239.716 2.55897 231.689 1.93481 223.177C1.25351 213.885 1.99218 204.461 1.99927 198.091C4.73999 181.936 9.71338 165.859 17.2395 153.844C24.7749 141.813 34.7636 134 47.5403 134Z" fill="#BABABA" stroke="white" stroke-width="2"/>
<path d="M49.5 155.426C52.9275 155.426 55.4932 155.604 57.375 155.953C59.2775 156.305 60.3516 156.812 60.9297 157.362C61.4483 157.855 61.6634 158.477 61.5879 159.404C61.508 160.385 61.1053 161.618 60.4365 163.177C57.8201 169.276 51.5982 179.197 51.502 193.1C42.755 205.23 40.2549 218.076 39.0068 228.622C38.3719 233.986 38.0718 238.614 37.4502 242.414C36.9232 245.635 36.1965 247.964 35.0361 249.436C26.4361 239.228 25.4956 228.995 25.375 220.101C25.3136 215.574 25.4715 211.239 24.8779 207.561C24.3086 204.033 23.0285 200.945 20.1279 198.649C21.9163 191.382 23.0091 185.021 24.0293 179.609C25.0855 174.005 26.0583 169.474 27.624 165.89C29.1707 162.35 31.2759 159.782 34.5977 158.069C37.9607 156.335 42.6655 155.426 49.5 155.426Z" fill="#BABABA" stroke="white" stroke-width="2"/>
<path d="M46.9995 145C74.1542 145 97.93 166.112 95.0054 193.896L95.0005 193.947V194C95.0005 207.84 94.9967 219.487 93.3286 228.74C91.7742 237.362 88.8025 243.733 83.186 247.826C82.0163 241.732 81.3913 235.523 80.8784 229.562C80.3263 223.147 79.9005 216.982 79.0493 211.654C78.2002 206.34 76.9071 201.693 74.5239 198.363C72.2471 195.182 69.0194 193.264 64.48 193.025C64.2357 186.22 61.4696 179.794 57.8892 174.012C54.139 167.956 49.4334 162.507 45.6616 158.003C43.7641 155.737 42.1154 153.725 40.9097 151.973C39.6801 150.186 39.0222 148.821 38.9233 147.83C38.8775 147.371 38.9572 147.037 39.1206 146.771C39.2894 146.497 39.6072 146.198 40.2017 145.923C41.4293 145.354 43.5738 145 46.9995 145Z" fill="#BABABA" stroke="white" stroke-width="2"/>
<path d="M252.893 139C278.86 139 299.893 159.829 299.893 185.5C299.893 187.029 299.628 188.155 299.189 188.989C298.759 189.809 298.13 190.405 297.292 190.837C295.549 191.734 292.913 191.919 289.414 191.687C285.94 191.456 281.884 190.842 277.345 190.313C272.84 189.789 267.932 189.358 262.902 189.525C252.825 189.86 242.209 192.596 233.274 201.781C224.606 210.693 217.636 225.558 214.144 249.835C209.72 244.716 207.911 236.689 207.287 228.177C206.606 218.885 207.344 209.461 207.352 203.091C210.092 186.936 215.066 170.859 222.592 158.844C230.127 146.813 240.116 139 252.893 139Z" fill="#BABABA" stroke="white" stroke-width="2"/>
<path d="M254.852 160.426C258.28 160.426 260.846 160.604 262.727 160.953C264.63 161.305 265.704 161.812 266.282 162.362C266.801 162.855 267.016 163.477 266.94 164.404C266.86 165.385 266.458 166.618 265.789 168.177C263.172 174.276 256.95 184.197 256.854 198.1C248.107 210.23 245.607 223.076 244.359 233.622C243.724 238.986 243.424 243.614 242.802 247.414C242.276 250.635 241.549 252.964 240.388 254.436C231.788 244.228 230.848 233.995 230.727 225.101C230.666 220.574 230.824 216.239 230.23 212.561C229.661 209.033 228.381 205.945 225.48 203.649C227.269 196.382 228.361 190.021 229.382 184.609C230.438 179.005 231.411 174.474 232.976 170.89C234.523 167.35 236.628 164.782 239.95 163.069C243.313 161.335 248.018 160.426 254.852 160.426Z" fill="#BABABA" stroke="white" stroke-width="2"/>
<path d="M250.353 150.5C277.049 150.5 298.757 171.849 299.339 198.405C296.37 198.206 293.792 198.598 291.546 199.506C289.019 200.527 286.968 202.179 285.278 204.27C281.924 208.416 279.947 214.342 278.381 220.698C277.595 223.89 276.904 227.235 276.2 230.558C275.495 233.889 274.777 237.204 273.933 240.376C272.47 245.873 270.649 250.838 267.948 254.63C264.958 237.654 263.324 229.069 260.266 222.218C257.096 215.116 252.4 209.886 243.349 199.129C243.306 192.248 242.082 185.713 240.693 179.809C239.265 173.742 237.704 168.466 236.985 163.986C236.263 159.491 236.479 156.226 238.231 154.058C239.975 151.899 243.516 150.5 250.353 150.5Z" fill="#BABABA" stroke="white" stroke-width="2"/>
<path d="M252.352 150C279.507 150 303.282 171.112 300.358 198.896L300.353 198.947V199C300.353 212.84 300.349 224.487 298.681 233.74C297.127 242.362 294.155 248.733 288.538 252.826C287.369 246.732 286.744 240.523 286.231 234.562C285.679 228.147 285.253 221.982 284.402 216.654C283.553 211.34 282.259 206.693 279.876 203.363C277.599 200.182 274.372 198.264 269.832 198.025C269.588 191.22 266.822 184.794 263.241 179.012C259.491 172.956 254.786 167.507 251.014 163.003C249.116 160.737 247.468 158.725 246.262 156.973C245.032 155.186 244.375 153.821 244.276 152.83C244.23 152.371 244.31 152.037 244.473 151.771C244.642 151.497 244.959 151.198 245.554 150.923C246.782 150.354 248.926 150 252.352 150Z" fill="#BABABA" stroke="white" stroke-width="2"/>
<g filter="url(#filter0_d_186_476)">
<path d="M124 97C124 108.874 114.374 95.5 102.5 95.5C90.6259 95.5 81 108.874 81 97C81 85.1259 90.6259 75.5 102.5 75.5C114.374 75.5 124 85.1259 124 97Z" fill="white"/>
</g>
<g filter="url(#filter1_d_186_476)">
<path d="M213 96.5C213 108.098 203.374 96.5 191.5 96.5C179.626 96.5 170 108.098 170 96.5C170 84.902 179.626 75.5 191.5 75.5C203.374 75.5 213 84.902 213 96.5Z" fill="white"/>
</g>
<g filter="url(#filter2_d_186_476)">
<path d="M172.5 144C172.5 158.359 195.5 167.5 193 170C190.791 170 170 158.359 170 144C170 129.641 190.791 118 193 118C194 123 172.5 129.641 172.5 144Z" fill="white"/>
</g>
<g filter="url(#filter3_d_186_476)">
<path d="M172.045 145.54C171.969 148.049 156.676 146.576 138.484 147.023C120.354 145.463 104.985 146.499 105.077 143.489C105.169 140.478 120.114 142.442 138.607 143.009C157.1 143.575 172.184 141.023 172.045 145.54Z" fill="white"/>
</g>
<path d="M45.0005 145.5C71.6964 145.5 93.4047 166.849 93.9868 193.405C91.0181 193.206 88.4401 193.598 86.1938 194.506C83.6668 195.527 81.6161 197.179 79.9253 199.27C76.572 203.416 74.5944 209.342 73.0288 215.698C72.2426 218.89 71.5516 222.235 70.8481 225.558C70.143 228.889 69.4248 232.204 68.5806 235.376C67.1173 240.873 65.2963 245.838 62.5962 249.63C59.6062 232.654 57.9716 224.069 54.9136 217.218C51.7433 210.116 47.0479 204.886 37.9966 194.129C37.9537 187.248 36.7294 180.713 35.3403 174.809C33.9129 168.742 32.3512 163.466 31.6323 158.986C30.9109 154.491 31.1264 151.226 32.8784 149.058C34.6228 146.899 38.164 145.5 45.0005 145.5Z" fill="#BABABA" stroke="white" stroke-width="2"/>
<path d="M92.9999 177C95.4999 194 95.9999 214.5 74.9999 202C53.5 199.5 -20 220.5 20.4999 160C20.4999 141.775 41.3791 140 58.4999 140C75.6208 140 92.9999 158.775 92.9999 177Z" fill="#BABABA"/>
<path d="M299 183C299.915 199.5 293.5 216 273.5 207C251.5 204.5 186.47 226.5 226.97 166C226.97 147.775 247.85 146 264.97 146C282.091 146 298.03 165.5 299 183Z" fill="#BABABA"/>
<path d="M206 213C206 221.837 172.629 222.001 147.5 222.001C122.371 222.001 96.4997 198.838 96.4997 190.001C93 175 122.371 190.001 147.5 190.001C172.629 190.001 206 204.163 206 213Z" fill="#717171"/>
<defs>
<filter id="filter0_d_186_476" x="77" y="75.5" width="51" height="34.4146" filterUnits="userSpaceOnUse" color-interpolation-filters="sRGB">
<feFlood flood-opacity="0" result="BackgroundImageFix"/>
<feColorMatrix in="SourceAlpha" type="matrix" values="0 0 0 0 0 0 0 0 0 0 0 0 0 0 0 0 0 0 127 0" result="hardAlpha"/>
<feOffset dy="4"/>
<feGaussianBlur stdDeviation="2"/>
<feComposite in2="hardAlpha" operator="out"/>
<feColorMatrix type="matrix" values="0 0 0 0 0 0 0 0 0 0 0 0 0 0 0 0 0 0 0.25 0"/>
<feBlend mode="normal" in2="BackgroundImageFix" result="effect1_dropShadow_186_476"/>
<feBlend mode="normal" in="SourceGraphic" in2="effect1_dropShadow_186_476" result="shape"/>
</filter>
<filter id="filter1_d_186_476" x="166" y="75.5" width="51" height="34.1548" filterUnits="userSpaceOnUse" color-interpolation-filters="sRGB">
<feFlood flood-opacity="0" result="BackgroundImageFix"/>
<feColorMatrix in="SourceAlpha" type="matrix" values="0 0 0 0 0 0 0 0 0 0 0 0 0 0 0 0 0 0 127 0" result="hardAlpha"/>
<feOffset dy="4"/>
<feGaussianBlur stdDeviation="2"/>
<feComposite in2="hardAlpha" operator="out"/>
<feColorMatrix type="matrix" values="0 0 0 0 0 0 0 0 0 0 0 0 0 0 0 0 0 0 0.25 0"/>
<feBlend mode="normal" in2="BackgroundImageFix" result="effect1_dropShadow_186_476"/>
<feBlend mode="normal" in="SourceGraphic" in2="effect1_dropShadow_186_476" result="shape"/>
</filter>
<filter id="filter2_d_186_476" x="166" y="118" width="31.1899" height="60" filterUnits="userSpaceOnUse" color-interpolation-filters="sRGB">
<feFlood flood-opacity="0" result="BackgroundImageFix"/>
<feColorMatrix in="SourceAlpha" type="matrix" values="0 0 0 0 0 0 0 0 0 0 0 0 0 0 0 0 0 0 127 0" result="hardAlpha"/>
<feOffset dy="4"/>
<feGaussianBlur stdDeviation="2"/>
<feComposite in2="hardAlpha" operator="out"/>
<feColorMatrix type="matrix" values="0 0 0 0 0 0 0 0 0 0 0 0 0 0 0 0 0 0 0.25 0"/>
<feBlend mode="normal" in2="BackgroundImageFix" result="effect1_dropShadow_186_476"/>
<feBlend mode="normal" in="SourceGraphic" in2="effect1_dropShadow_186_476" result="shape"/>
</filter>
<filter id="filter3_d_186_476" x="101.076" y="141.855" width="74.97" height="13.1997" filterUnits="userSpaceOnUse" color-interpolation-filters="sRGB">
<feFlood flood-opacity="0" result="BackgroundImageFix"/>
<feColorMatrix in="SourceAlpha" type="matrix" values="0 0 0 0 0 0 0 0 0 0 0 0 0 0 0 0 0 0 127 0" result="hardAlpha"/>
<feOffset dy="4"/>
<feGaussianBlur stdDeviation="2"/>
<feComposite in2="hardAlpha" operator="out"/>
<feColorMatrix type="matrix" values="0 0 0 0 0 0 0 0 0 0 0 0 0 0 0 0 0 0 0.25 0"/>
<feBlend mode="normal" in2="BackgroundImageFix" result="effect1_dropShadow_186_476"/>
<feBlend mode="normal" in="SourceGraphic" in2="effect1_dropShadow_186_476" result="shape"/>
</filter>
</defs>
</svg>
