<svg width="496" height="472" viewBox="0 0 496 472" fill="none" xmlns="http://www.w3.org/2000/svg">
<path d="M381.5 471.5L386.5 433V407.5L381.5 386.5L363 355L319 297.5L346.5 153L243 315L289.5 322.971L319 329L343 355L367 386.5L375.5 407.5L381.5 433V471.5Z" fill="#FF0000"/>
<path d="M416.226 417L421 385.188V364.117L416.226 346.765L398.564 320.737L356.557 273.225L321.233 153L284 287.685L328.394 294.272L356.557 299.254L379.47 320.737L402.383 346.765L410.498 364.117L416.226 385.188V417Z" fill="#FF0000"/>
<path d="M495.5 231.263L469 253.451L451 263.017L424.5 264.951L398 262L354.057 236.988L305 301.5V110L354.057 169L366.5 222L396.064 241.763L426 251.448H451L471 241.763L495.5 231.263Z" fill="#FF0000"/>
<path d="M462.5 156.263L436 178.451L418 188.017L391.5 189.951L365 187L321.057 161.988L272 226.5V35L321.057 94L333.5 147L363.064 166.763L393 176.448H418L438 166.763L462.5 156.263Z" fill="#FF0000"/>
<circle cx="174.5" cy="174.5" r="173.5" fill="white" stroke="black" stroke-width="2"/>
<path d="M292.96 104.772C274.759 115.764 240.52 99.1826 243.32 103.819C246.12 108.455 277.294 119.961 295.495 108.969C313.697 97.977 311.177 69.1664 308.377 64.5302C305.577 59.8941 311.162 93.7798 292.96 104.772Z" fill="#FF0000"/>
<path d="M281.957 137.66C285.231 158.67 319.133 174.373 313.918 175.186C308.704 175.999 280.51 159.406 277.236 138.396C273.961 117.387 297 100.905 302.215 100.093C307.43 99.28 278.682 116.651 281.957 137.66Z" fill="#FF0000"/>
<path d="M255.524 273.896C267.104 291.729 304.464 292.195 300.037 295.069C295.611 297.943 263.097 294.331 251.517 276.498C239.937 258.665 254.22 234.203 258.647 231.329C263.073 228.454 243.944 256.063 255.524 273.896Z" fill="#FF0000"/>
<path d="M138.089 330.293C142.342 341.97 167.885 345.567 164.252 346.89C160.618 348.213 139.052 343.168 134.8 331.49C130.547 319.813 145.419 306.475 149.053 305.152C152.686 303.828 133.837 318.615 138.089 330.293Z" fill="#FF0000"/>
<path d="M226.956 274.554C238.814 268.737 263.347 289.499 261.145 285.01C258.943 280.521 236.821 264.673 224.962 270.49C213.104 276.307 216.557 301.312 218.759 305.802C220.961 310.291 215.097 280.371 226.956 274.554Z" fill="#FF0000"/>
<circle cx="127.5" cy="205.5" r="73.5" fill="#FF0000" stroke="black" stroke-width="2"/>
<circle cx="113.5" cy="216.5" r="36.5" fill="black" stroke="black" stroke-width="2"/>
<circle cx="137" cy="190" r="11" fill="white" stroke="black" stroke-width="2"/>
<path d="M157 35C157 56.263 189.523 77 184 77C178.477 77 152 56.263 152 35C152 13.737 178.477 1 184 1C189.523 1 157 13.737 157 35Z" fill="#FF0000"/>
<path d="M138.96 66.7718C120.759 77.7638 86.5204 61.1826 89.3202 65.8187C92.12 70.4549 123.294 81.961 141.495 70.969C159.697 59.977 157.177 31.1664 154.377 26.5302C151.577 21.8941 157.162 55.7798 138.96 66.7718Z" fill="#FF0000"/>
</svg>
