<svg width="207" height="384" viewBox="0 0 207 384" fill="none" xmlns="http://www.w3.org/2000/svg">
<path d="M34.9859 236H167.349L176.679 239.01L184.259 242.522L188.924 248.542L192.423 256.569L204 310.5L207 384H0V310.5L9.91268 256.569L13.9944 248.542L19.2423 242.522L26.2394 238.007L34.9859 236Z" fill="#E6E6E6"/>
<circle cx="100.5" cy="176.5" r="67.5" fill="#F5D160"/>
<path d="M51.5 84L56 94.5L58 105V118V129L60 140.5L67.5215 161.25L34 165L35.4785 149L37 138.5L40.5 122.5L46 113L50 102.5L51.5 84Z" fill="#F5D160"/>
<path d="M145.479 84L147.5 92.5L145.479 100.5L147.5 107L149.5 115L153.5 122.5L158 132.5L161.5 145L166 159.5L127.979 165L129.457 149L130.979 138.5L134.479 122.5L135.5 113L137 107L138.5 100.5L143.5 92.5L145.479 84Z" fill="#F5D160"/>
<path d="M73.5 40L77 47L80.5 54.5L83 62L85 68.5L87.5 77V88L85 99.5L87.5 110.5L90.3875 127H56.6125L60.5 106L63.5 97.5L71 85.5L73.5 77L75.5 70V63V54.5L73.5 40Z" fill="#F5D160"/>
<path d="M122.5 0.5L115.5 17V27.5V43.5L117.5 60L128 75L132.5 89.5L135 101.5L137.914 130L78.5 127L98 92.5L95 75V56L98 39L106 24.5L122.5 0.5Z" fill="#F5D160"/>
<circle cx="100.5" cy="192.5" r="43.5" fill="#B35213"/>
<path d="M69.2689 132L72.1667 138.87L73.4545 145.741L71 155.5L73.4545 161.444L74.7424 168.969L79.5858 182.546L57 192.5L56 182.546L55.5 173L56 166.5L58.9521 157.191L65.7273 150.975L68.303 144.105L69.2689 132Z" fill="#B35213"/>
<path d="M129.785 132L131.087 137.562L129.785 142.796L131.087 147.049L132.375 152.284L134.951 157.191L137.848 163.735L140.102 171.914L143 181.401L118.516 185L119.469 174.531L120.448 167.66L122.702 157.191L123.36 150.975L124.326 147.049L125.292 142.796L128.511 137.562L129.785 132Z" fill="#B35213"/>
<path d="M76.938 113.677L80.9392 120.72L83.9229 126.905L86.5 131L88 135.5L89 138.485L91.0777 147L94 151.519L90.4974 155.763L90.9958 162.569L91.0777 172.628L65.0156 166.776L64.1462 156.54L71.5923 151.519L73.3703 143.6L77.5 138.485L77.5 134.5L78.5143 131.52L79.7604 125.97L76.938 113.677Z" fill="#B35213"/>
<path d="M117.168 100L113.384 107.9V112.927V120.587L114.465 128.486L120.141 135.668L122.573 142.61L123.925 148.355L125.5 162L93.3824 160.564L90.5 151.667L95.0294 142.61L99.9706 135.668L102.302 126.571L103.924 118.432L108.248 111.49L117.168 100Z" fill="#B35213"/>
<path d="M54.6946 231.595C55.6954 229.048 58.5581 227.779 61.1179 228.747L88.5187 239.115C91.2175 240.136 92.4941 243.224 91.3048 245.852L86.3762 256.747C85.122 259.52 81.7033 260.538 79.1363 258.905L54.4759 243.212C52.4571 241.927 51.6315 239.392 52.5065 237.165L54.6946 231.595Z" fill="#D9D9D9"/>
<path d="M143.3 230.112C141.946 228.28 139.524 227.595 137.411 228.447L112.387 238.531C109.73 239.601 108.514 242.68 109.722 245.277L114.926 256.466C116.257 259.328 119.875 260.256 122.419 258.387L145.458 241.469C147.688 239.831 148.164 236.692 146.519 234.467L143.3 230.112Z" fill="#D9D9D9"/>
<path d="M108.68 244.5L113.952 256.005L108.671 268.25H93.3174L87.541 255.978L91.8467 244.5H108.68Z" fill="#000080" stroke="#0000FF"/>
<path d="M109.525 268.5L114.744 280.199L109.375 383.5H93.1475L88.7539 280.181L93.0176 268.5H109.525Z" fill="#000080" stroke="#0000FF"/>
<line x1="34.5" y1="304" x2="34.5" y2="384" stroke="#D9D9D9" stroke-width="3"/>
<line x1="169.497" y1="303.906" x2="174.497" y2="383.906" stroke="#D9D9D9" stroke-width="3"/>
</svg>
