<svg width="445" height="364" viewBox="0 0 445 364" fill="none" xmlns="http://www.w3.org/2000/svg">
<path d="M296 275.388C296 303.002 348.114 363.123 320.5 363.123C292.886 363.123 227 297.502 227 269.888C227 242.273 230.386 214 258 214C285.614 214 296 247.773 296 275.388Z" fill="#7F00FF"/>
<path d="M445 193.319C445 274.681 345.383 271.99 222.5 271.99C99.6166 271.99 0 274.681 0 193.319C0 111.957 99.6166 46 222.5 46C345.383 46 445 111.957 445 193.319Z" fill="#F2AEB1"/>
<path d="M154.5 92C154.5 117.405 117.376 138 87 138C56.6243 138 37.5 117.405 37.5 92C37.5 66.5949 67.6243 45.5 98 45.5C128.376 45.5 154.5 66.5949 154.5 92Z" fill="#F2AEB1"/>
<path d="M346.5 68.5C346.5 99.8101 301.193 114 271.077 114C240.961 114 222 88.6182 222 57.3081C222 25.998 251.867 0 281.983 0C312.099 0 346.5 37.1899 346.5 68.5Z" fill="#F2AEB1"/>
<path d="M421.923 96.5C421.923 127.81 376.616 142 346.5 142C316.384 142 297.423 116.618 297.423 85.3081C297.423 53.998 327.29 28 357.406 28C387.522 28 421.923 65.1899 421.923 96.5Z" fill="#F2AEB1"/>
<path d="M234 46.5C234 71.9051 196.876 92.5 166.5 92.5C136.124 92.5 117 71.9051 117 46.5C117 21.0949 147.124 0 177.5 0C207.876 0 234 21.0949 234 46.5Z" fill="#F2AEB1"/>
<path d="M223.941 77.0768C231.582 104.474 235.992 111.09 231.204 112.425C226.416 113.76 223.617 115.001 215.976 87.6033C208.335 60.2058 219.036 18.2307 226.349 23.9776C242.756 28.5415 216.3 49.6792 223.941 77.0768Z" fill="#FF69B4"/>
<path d="M134.148 108.055C129.132 110.363 107.565 102.98 88.0037 96.5208C59.9158 101.168 37.3452 118.67 37.3452 101.168C37.3452 91.4456 60.1558 92.0222 72.455 87.7522C99.0382 78.5231 147.189 92.3666 134.148 108.055Z" fill="#FF69B4"/>
<path d="M72.737 88.9129C71.0733 91.6333 76.943 100.339 84.2011 108.711C82.2435 122.748 70.7935 136.508 86.3564 133.976C95.0017 132.569 92.7229 121.799 95.5677 115.329C101.716 101.345 85.6782 80.4379 72.737 88.9129Z" fill="#FF69B4"/>
<path d="M220.981 71.6829C220.527 74.665 211.064 78.6527 200.808 81.6877C193.726 93.7861 193.607 110.376 183.996 100.645C178.658 95.2396 186.798 87.8331 188.672 81.2927C192.722 67.1565 216.838 58.5425 220.981 71.6829Z" fill="#FF69B4"/>
<path d="M309.441 117.77C315.014 120.078 338.978 112.695 360.713 106.236C391.922 110.883 417 128.384 417 110.883C417 101.16 391.655 101.737 377.989 97.467C348.452 88.238 294.952 102.081 309.441 117.77Z" fill="#FF69B4"/>
<path d="M377.799 98.4124C379.642 101.133 373.14 109.838 365.101 118.211C367.27 132.248 379.952 146.008 362.714 143.476C353.138 142.069 355.662 131.299 352.511 124.829C345.701 110.845 363.465 89.9374 377.799 98.4124Z" fill="#FF69B4"/>
<ellipse cx="120.5" cy="189" rx="33.5" ry="30" fill="white"/>
<ellipse cx="267.5" cy="189" rx="33.5" ry="30" fill="white"/>
<ellipse cx="120" cy="192.5" rx="12" ry="12.5" fill="black"/>
<ellipse cx="265" cy="192.5" rx="12" ry="12.5" fill="black"/>
<path d="M219.5 230.56C218.5 233 206.292 227.56 190 227.56C173.708 227.56 162 232.5 160.5 230.56C159.5 228 173.708 222.56 190 222.56C206.292 222.56 220 228.5 219.5 230.56Z" fill="black"/>
<path d="M167.165 162.232C167.858 159.039 153.83 158.935 139.742 150.786C125.655 142.636 118.685 131.329 116.149 132.72C113.651 135.043 122.463 148.153 136.551 156.303C150.638 164.452 166.283 164.755 167.165 162.232Z" fill="black"/>
<path d="M268.291 138.726C266.023 136.375 258.138 147.978 243.532 155.157C228.926 162.337 215.652 161.844 215.399 164.725C215.942 168.094 231.738 168.056 246.343 160.877C260.949 153.698 269.898 140.862 268.291 138.726Z" fill="black"/>
<path d="M319.505 2.18728C326.187 10.2786 323.835 23.2521 314.254 31.1644C304.672 39.0767 291.488 38.9316 284.806 30.8403C278.125 22.749 299.897 33.2947 309.479 25.3824C319.061 17.4701 312.824 -5.90401 319.505 2.18728Z" fill="black"/>
<path d="M285.414 44.9811C294.343 39.4687 306.873 43.5718 313.401 54.1455C319.929 64.7193 317.982 77.7596 309.053 83.2719C300.124 88.7843 313.548 68.6583 307.02 58.0846C300.492 47.5109 276.485 50.4934 285.414 44.9811Z" fill="black"/>
<path d="M329.302 85.6162C322.508 77.6194 324.677 64.6142 334.147 56.5684C343.617 48.5225 356.802 48.4828 363.596 56.4796C370.39 64.4765 348.472 54.237 339.002 62.2829C329.532 70.3287 336.096 93.6131 329.302 85.6162Z" fill="black"/>
<path d="M362.969 42.8472C354.281 48.7325 341.589 45.1634 334.619 34.8754C327.65 24.5874 329.043 11.4764 337.73 5.59109C346.418 -0.294183 333.858 20.3818 340.827 30.6698C347.797 40.9578 371.656 36.962 362.969 42.8472Z" fill="black"/>
</svg>
