<svg width="264" height="467" viewBox="0 0 264 467" fill="none" xmlns="http://www.w3.org/2000/svg">
<rect x="91" width="74" height="34" rx="5" fill="#DBE1E3"/>
<path d="M79.5 407C79.5 434.614 96.8741 457 85 457C73.1259 457 63.5 434.614 63.5 407C63.5 379.386 73.1259 357 85 357C96.8741 357 79.5 379.386 79.5 407Z" fill="black"/>
<path d="M41.8711 462.177C13.4407 464.549 3.40762 469.144 2.45558 457.735C1.50354 446.327 12.6211 437.215 41.0516 434.843C69.482 432.47 88.6946 438.615 89.6467 450.023C90.5987 461.431 70.3016 459.804 41.8711 462.177Z" fill="#97572B"/>
<path d="M182.535 407C182.535 434.614 163.57 457 176.531 457C189.493 457 200 434.614 200 407C200 379.386 189.493 357 176.531 357C163.57 357 182.535 379.386 182.535 407Z" fill="black"/>
<path d="M220.635 462.638C250.316 465.24 260.788 469.916 261.788 458.512C262.788 447.108 251.185 437.904 221.504 435.302C191.823 432.7 171.762 438.692 170.762 450.096C169.762 461.5 190.954 460.036 220.635 462.638Z" fill="#97572B"/>
<rect x="25" y="29" width="206" height="341" rx="5" fill="#DBE1E3"/>
<path d="M40 39H217C219.209 39 221 40.7909 221 43V359C221 361.209 219.209 363 217 363H40C37.7909 363 36 361.209 36 359V43C36 40.7909 37.7909 39 40 39Z" stroke="black" stroke-width="2"/>
<rect x="37" y="290" width="183" height="72" fill="#FF0000"/>
<path d="M86.9933 153.644C93.221 161.035 89.368 174.528 78.3871 183.78C67.4062 193.033 53.4558 194.542 47.2281 187.152C41.0003 179.761 58.7068 182.709 69.6877 173.456C80.6686 164.204 80.7655 146.254 86.9933 153.644Z" fill="black"/>
<path d="M169.363 186.535C163.256 194.027 149.283 192.745 138.153 183.672C127.023 174.599 122.95 161.171 129.057 153.68C135.164 146.189 135.553 164.135 146.683 173.208C157.813 182.28 175.469 179.044 169.363 186.535Z" fill="black"/>
<path d="M72.6868 243.999C72.8323 234.335 91.6421 225.895 106 226.112C120.358 226.328 139.832 234.336 139.687 244C139.541 253.664 120.358 244.216 106 244C91.6422 243.784 69.1343 254.501 72.6868 243.999Z" fill="black"/>
<path d="M199.676 50.8997L193.829 59.9258L191.329 63.4258L188.948 67.4258L186 72.4258L184.329 77.9258L186 83.5734L188.948 88.8341L195.5 91.9264L202.106 91.9264L207.778 88.8341L211.851 83.5734L211.851 77.9258L209.829 72.4258L206.829 65.4258L205.329 61.4258L199.676 50.8997Z" fill="#65ACC7"/>
<path d="M209.5 79.7629C209.5 81.972 208.605 83.7629 207.5 83.7629C206.395 83.7629 207 81.972 207 79.7629C207 77.5537 206.395 75.7629 207.5 75.7629C208.605 75.7629 209.5 77.5537 209.5 79.7629Z" fill="#86B9D8"/>
<line x1="35" y1="85.5" x2="85" y2="85.5" stroke="black" stroke-width="3"/>
<line x1="35" y1="97.5" x2="85" y2="97.5" stroke="black" stroke-width="3"/>
<line x1="35" y1="109.5" x2="85" y2="109.5" stroke="black" stroke-width="3"/>
</svg>
