<svg width="190" height="84" viewBox="0 0 190 84" fill="none" xmlns="http://www.w3.org/2000/svg">
<path d="M134.328 0.660706C118.378 0.660706 105.308 12.9896 104.128 28.6373C102.63 28.3161 101.077 28.1461 99.4832 28.1461C87.3077 28.1461 77.4373 38.0165 77.4373 50.192C77.4373 50.8093 77.4646 51.4205 77.5144 52.025H187.354C188.464 49.2322 189.074 46.1867 189.074 42.9986C189.074 29.4903 178.123 18.5397 164.615 18.5396C163.74 18.5396 162.875 18.5857 162.024 18.6754C157.315 8.06309 146.686 0.660843 134.328 0.660706Z" fill="#ADADAD"/>
<path d="M78.6616 10.5549C101.334 10.5549 119.912 28.0804 121.59 50.3234C123.719 49.8669 125.928 49.6252 128.193 49.6252C145.5 49.6252 159.531 63.6558 159.531 80.9631C159.531 81.8405 159.492 82.7093 159.421 83.5685H3.28467C1.70757 79.5987 0.839355 75.2701 0.839355 70.7385C0.839396 51.5363 16.4058 35.97 35.6079 35.9699C36.8521 35.9699 38.0811 36.0368 39.2915 36.1642C45.9858 21.0782 61.0937 10.5549 78.6616 10.5549Z" fill="#D9D9D9"/>
</svg>
