<svg width="240" height="240" viewBox="0 0 240 240" fill="none" xmlns="http://www.w3.org/2000/svg">
<circle cx="120" cy="120" r="118.5" fill="#426F8A" stroke="#102128" stroke-width="3"/>
<circle cx="120" cy="120" r="98.5" fill="#ECB779" stroke="#102128" stroke-width="3"/>
<path d="M113.767 97.408C113.767 101.589 112.871 106.069 111.079 110.848C109.372 115.627 106.855 120.448 103.527 125.312C100.284 130.176 96.3158 134.955 91.6225 139.648C87.0145 144.256 81.8518 148.565 76.1345 152.576L112.487 153.6V160H64.7425V153.728C69.8625 150.485 74.7692 146.603 79.4625 142.08C84.1558 137.557 88.2518 132.779 91.7505 127.744C95.3345 122.624 98.1505 117.461 100.199 112.256C102.332 106.965 103.399 102.016 103.399 97.408C103.399 95.36 103.185 93.4827 102.759 91.776C102.332 89.984 101.607 88.448 100.583 87.168C99.5585 85.888 98.1932 84.9067 96.4865 84.224C94.8652 83.456 92.8598 83.072 90.4705 83.072C86.8865 83.072 83.8145 83.84 81.2545 85.376C78.7798 86.8267 77.5425 89.5573 77.5425 93.568C77.5425 95.7013 77.7558 97.9627 78.1825 100.352L68.5825 101.632C67.6438 98.816 67.1745 96.128 67.1745 93.568C67.1745 90.496 67.7718 87.936 68.9665 85.888C70.2465 83.84 71.9532 82.176 74.0865 80.896C76.2198 79.616 78.6945 78.72 81.5105 78.208C84.3265 77.696 87.3132 77.44 90.4705 77.44C98.1505 77.44 103.953 79.232 107.879 82.816C111.804 86.4 113.767 91.264 113.767 97.408ZM153.259 127.232C149.163 127.232 146.389 130.091 144.939 135.808C143.573 141.525 142.891 149.589 142.891 160H132.523C132.523 151.467 133.675 144.213 135.979 138.24C138.283 132.267 141.269 127.957 144.939 125.312C140.843 123.008 137.856 119.083 135.979 113.536C134.101 107.989 133.077 101.461 132.907 93.952H142.378C142.378 97.8773 142.464 101.589 142.635 105.088C142.891 108.501 143.403 111.531 144.171 114.176C144.939 116.736 146.005 118.784 147.371 120.32C148.821 121.771 150.784 122.496 153.259 122.496C155.648 122.496 157.568 121.728 159.019 120.192C160.469 118.656 161.579 116.608 162.347 114.048C163.115 111.403 163.584 108.373 163.755 104.96C164.011 101.461 164.139 97.792 164.139 93.952H173.611C173.44 101.376 172.416 107.904 170.539 113.536C168.661 119.083 165.632 123.008 161.451 125.312C165.205 127.957 168.235 132.267 170.539 138.24C172.843 144.213 173.995 151.467 173.995 160H163.627C163.627 149.589 162.901 141.525 161.451 135.808C160.085 130.091 157.355 127.232 153.259 127.232Z" fill="black"/>
</svg>